<?xml version="1.0" standalone="no"?>
<!DOCTYPE svg PUBLIC "-//W3C//DTD SVG 20010904//EN"
 "http://www.w3.org/TR/2001/REC-SVG-20010904/DTD/svg10.dtd">
<svg version="1.0" xmlns="http://www.w3.org/2000/svg"
 width="3000.000000pt" height="3000.000000pt" viewBox="0 0 3000.000000 3000.000000"
 preserveAspectRatio="xMidYMid meet">
<metadata>
Created by potrace 1.14, written by Peter Selinger 2001-2017
</metadata>
<g transform="translate(0.000000,3000.000000) scale(0.100000,-0.100000)"
fill="#000000" stroke="none">
<path d="M0 15000 l0 -15000 15000 0 15000 0 0 15000 0 15000 -15000 0 -15000
0 0 -15000z m17295 6891 c51 -24 80 -51 105 -101 20 -39 20 -59 20 -1325 0
-1138 -2 -1290 -15 -1323 -33 -78 -101 -122 -190 -122 -89 0 -157 44 -190 122
-13 33 -15 185 -15 1323 0 1266 0 1286 20 1325 37 73 110 120 185 120 22 0 58
-9 80 -19z m625 -433 c29 -15 56 -40 78 -72 l32 -48 0 -872 0 -872 -22 -44
c-32 -62 -92 -102 -163 -108 -91 -7 -160 31 -200 112 l-25 50 0 855 c0 824 1
858 20 899 50 110 173 154 280 100z m-1830 -102 c31 -15 54 -37 75 -71 l30
-48 0 -772 0 -772 -30 -48 c-51 -82 -152 -117 -248 -86 -39 13 -101 74 -116
114 -8 19 -11 279 -11 793 0 841 -3 800 62 862 67 63 149 73 238 28z m614
-309 c22 -12 54 -42 71 -65 l30 -44 0 -478 0 -478 -30 -43 c-91 -130 -284
-118 -356 23 -18 35 -19 65 -19 498 0 441 1 462 20 500 54 106 180 145 284 87z
m-3836 -429 c61 -15 137 -89 149 -144 4 -22 8 -608 8 -1304 0 -998 -3 -1273
-13 -1301 -14 -41 -62 -93 -106 -116 -82 -43 -202 -8 -261 75 l-30 44 -3 1292
-2 1292 27 54 c31 59 58 84 119 105 49 18 54 18 112 3z m-605 -429 c47 -13
102 -60 128 -110 18 -37 19 -67 19 -904 0 -837 -1 -867 -19 -904 -28 -55 -81
-97 -139 -111 -98 -23 -197 29 -236 122 -14 33 -16 143 -16 895 0 965 -4 905
76 971 59 49 115 61 187 41z m1837 -96 c47 -9 125 -87 139 -138 15 -56 15
-1494 0 -1550 -22 -77 -115 -145 -200 -145 -69 0 -147 48 -182 113 l-22 42 0
765 c0 764 0 765 22 805 50 93 133 130 243 108z m-608 -313 c49 -14 93 -52
121 -104 22 -40 22 -50 25 -471 4 -497 2 -516 -61 -579 -64 -63 -134 -79 -220
-50 -58 20 -111 78 -126 139 -7 29 -11 190 -11 463 0 468 3 492 63 551 57 54
131 72 209 51z"/>
</g>
</svg>
